# xmcd
#
# Track frame offsets: 
#        150
#        15330
#        37548
#        55400
#        69469
#        89196
#        109470
#        126624
#        144552
#        162234
#        181359
#        198564
#        214465
#        234972
#        252266
#        269120
#        285019
#        303374
#        312524
#        327444
#
# Disc length: 4549 seconds
#
# Revision: 0
# Processed by: cddbd v1.5.2PL0 Copyright (c) Steve Scherf et al.
# Submitted via: ExactAudioCopy v1.0b5
#
DISCID=3111c314
DTITLE=张碧晨 - 中国好声音
DYEAR=2014
DGENRE=A Cappella
TTITLE0=时间都去哪儿了
TTITLE1=汪峰&帕尔哈提 - 有些事我们永远无法左右
TTITLE2=秦宇子 - Are You Ready?
TTITLE3=余枫 - 牧马人
TTITLE4=我只在乎教你
TTITLE5=杨坤&余枫 - 空城
TTITLE6=帕尔哈提 - 花儿为什么这样红
TTITLE7=齐秦&秦宇子 - 狼
TTITLE8=帕尔哈提 - 礼物
TTITLE9=那英&张碧晨 - 相见不如怀念
TTITLE10=余枫 - 至少还有你
TTITLE11=梦一场
TTITLE12=张玮 - 伤
TTITLE13=毕夏&张恒远 - 大闹天空
TTITLE14=吴莫愁 - 就现在
TTITLE15=吴莫愁 - 无所不在
TTITLE16=李琦 - 风中少年
TTITLE17=李琪 - It's a Man's World
TTITLE18=刘明湘 - 漂洋过海来看你
TTITLE19=陈乐基 - 月半小夜曲
EXTD=
EXTT0=
EXTT1=
EXTT2=
EXTT3=
EXTT4=
EXTT5=
EXTT6=
EXTT7=
EXTT8=
EXTT9=
EXTT10=
EXTT11=
EXTT12=
EXTT13=
EXTT14=
EXTT15=
EXTT16=
EXTT17=
EXTT18=
EXTT19=
PLAYORDER=
